<?xml version="1.0" encoding="UTF-8"?>
<svg xmlns="http://www.w3.org/2000/svg" viewBox="0 0 101.93 57.48">
  <g id="Layer_2" data-name="Layer 2">
    <g id="Layer_1-2" data-name="Layer 1">
      <polygon points="27.32 1.02 27.32 26.48 19.73 26.48 19.73 16.55 9.38 16.55 9.38 26.48 1.79 26.48 1.79 1.02 9.38 1.02 9.38 10.58 19.73 10.58 19.73 1.02 27.32 1.02"/>
      <path d="M48,19.6A6.55,6.55,0,0,0,50.49,17a7.71,7.71,0,0,0,.91-3.8,7.71,7.71,0,0,0-.91-3.8A6.64,6.64,0,0,0,48,6.87a7.17,7.17,0,0,0-7,0,6.64,6.64,0,0,0-2.47,2.57,7.82,7.82,0,0,0-.91,3.8,7.82,7.82,0,0,0,.91,3.8A6.55,6.55,0,0,0,41,19.6a7.17,7.17,0,0,0,7,0M37.27,24.77a12.72,12.72,0,0,1-6.89-11.53A12.72,12.72,0,0,1,37.27,1.71,15.23,15.23,0,0,1,44.53,0a15.19,15.19,0,0,1,7.25,1.71,12.72,12.72,0,0,1,6.89,11.53,12.72,12.72,0,0,1-6.89,11.53,15.19,15.19,0,0,1-7.25,1.71,15.23,15.23,0,0,1-7.26-1.71"/>
      <path d="M18.37,43.69h6.36V54.24a16.68,16.68,0,0,1-5,2.4,19.87,19.87,0,0,1-5.67.84,15.24,15.24,0,0,1-7.2-1.69,12.6,12.6,0,0,1-5-4.71,13.76,13.76,0,0,1,0-13.68,12.61,12.61,0,0,1,5.05-4.71A15.54,15.54,0,0,1,14.18,31a16.35,16.35,0,0,1,6.41,1.2,12.33,12.33,0,0,1,4.72,3.45L20.73,39.8A8.08,8.08,0,0,0,14.55,37a7.17,7.17,0,0,0-5.28,2,7.12,7.12,0,0,0-2,5.29A7.75,7.75,0,0,0,8.18,48a6.46,6.46,0,0,0,2.55,2.58,7.45,7.45,0,0,0,3.75.93,9.19,9.19,0,0,0,3.89-.84Z"/>
      <polygon points="48.58 51.4 48.58 56.97 29.26 56.97 29.26 31.51 48.58 31.51 48.58 37.07 36.39 37.07 36.39 41.36 48.58 41.36 48.58 46.75 36.39 46.75 36.39 51.4 48.58 51.4"/>
      <polygon points="77.19 31.51 77.19 56.97 71.27 56.97 60.03 43.4 60.03 56.97 52.97 56.97 52.97 31.51 58.9 31.51 70.14 45.07 70.14 31.51 77.19 31.51"/>
      <polygon points="80.47 31.51 80.47 37.22 87.62 37.22 87.62 56.97 94.82 56.97 94.82 37.22 101.93 37.22 101.93 31.51 80.47 31.51"/>
    </g>
  </g>
</svg>